<?xml version="1.0" encoding="UTF-8" standalone="no"?>
<!-- Created with Inkscape (http://www.inkscape.org/) -->

<svg
   xmlns:dc="http://purl.org/dc/elements/1.1/"
   xmlns:cc="http://creativecommons.org/ns#"
   xmlns:rdf="http://www.w3.org/1999/02/22-rdf-syntax-ns#"
   xmlns:svg="http://www.w3.org/2000/svg"
   xmlns="http://www.w3.org/2000/svg"
   xmlns:xlink="http://www.w3.org/1999/xlink"
   xmlns:sodipodi="http://sodipodi.sourceforge.net/DTD/sodipodi-0.dtd"
   xmlns:inkscape="http://www.inkscape.org/namespaces/inkscape"
   width="280"
   height="56.000004"
   id="svg2778"
   sodipodi:version="0.32"
   inkscape:version="0.48.0 r9654"
   version="1.0"
   sodipodi:docname="background.svg"
   inkscape:output_extension="org.inkscape.output.svgz.inkscape">
  <defs
     id="defs2780">
    <linearGradient
       inkscape:collect="always"
       id="linearGradient3595">
      <stop
         style="stop-color:#000000;stop-opacity:1;"
         offset="0"
         id="stop3597" />
      <stop
         style="stop-color:#000000;stop-opacity:0;"
         offset="1"
         id="stop3599" />
    </linearGradient>
    <inkscape:perspective
       sodipodi:type="inkscape:persp3d"
       inkscape:vp_x="0 : 28 : 1"
       inkscape:vp_y="0 : 1000 : 0"
       inkscape:vp_z="278 : 28 : 1"
       inkscape:persp3d-origin="139 : 18.666667 : 1"
       id="perspective8" />
    <linearGradient
       inkscape:collect="always"
       xlink:href="#linearGradient3595"
       id="linearGradient3601"
       x1="160.14285"
       y1="307.07648"
       x2="308.14285"
       y2="306.57648"
       gradientUnits="userSpaceOnUse"
       spreadMethod="reflect" />
    <linearGradient
       inkscape:collect="always"
       xlink:href="#linearGradient4169"
       id="linearGradient3607"
       gradientUnits="userSpaceOnUse"
       spreadMethod="reflect"
       x1="160.14285"
       y1="307.07648"
       x2="308.14285"
       y2="306.57648" />
    <linearGradient
       inkscape:collect="always"
       xlink:href="#linearGradient4169"
       id="linearGradient13840"
       gradientUnits="userSpaceOnUse"
       spreadMethod="reflect"
       x1="-127"
       y1="385.86218"
       x2="-110"
       y2="385.86218" />
    <linearGradient
       id="linearGradient4169">
      <stop
         id="stop4171"
         offset="0"
         style="stop-color:#4b4b4b;stop-opacity:1;" />
      <stop
         id="stop4173"
         offset="1"
         style="stop-color:#333333;stop-opacity:0;" />
    </linearGradient>
    <linearGradient
       gradientTransform="matrix(1,0,0,-1,310.14287,791.43866)"
       y2="385.86218"
       x2="-110"
       y1="385.86218"
       x1="-127"
       spreadMethod="reflect"
       gradientUnits="userSpaceOnUse"
       id="linearGradient3693"
       xlink:href="#linearGradient4169"
       inkscape:collect="always" />
  </defs>
  <sodipodi:namedview
     id="base"
     pagecolor="#333333"
     bordercolor="#666666"
     borderopacity="1.0"
     gridtolerance="10000"
     guidetolerance="10"
     objecttolerance="10"
     inkscape:pageopacity="0.2"
     inkscape:pageshadow="2"
     inkscape:zoom="0.56416625"
     inkscape:cx="-266.40411"
     inkscape:cy="131.14676"
     inkscape:document-units="px"
     inkscape:current-layer="g3603"
     showgrid="true"
     inkscape:window-width="1280"
     inkscape:window-height="981"
     inkscape:window-x="-3"
     inkscape:window-y="22"
     inkscape:window-maximized="1">
    <inkscape:grid
       type="xygrid"
       id="grid2813"
       empspacing="5"
       visible="true"
       enabled="true"
       snapvisiblegridlinesonly="true" />
  </sodipodi:namedview>
  <metadata
     id="metadata2783">
    <rdf:RDF>
      <cc:Work
         rdf:about="">
        <dc:format>image/svg+xml</dc:format>
        <dc:type
           rdf:resource="http://purl.org/dc/dcmitype/StillImage" />
        <dc:title />
      </cc:Work>
    </rdf:RDF>
  </metadata>
  <g
     inkscape:label="Layer 1"
     inkscape:groupmode="layer"
     id="layer1"
     transform="translate(-103.14286,-320.07648)">
    <g
       id="g3603"
       transform="translate(75,69)">
      <rect
         style="opacity:0;fill:#ffffff;fill-opacity:1;stroke:none"
         id="rect3375"
         width="280"
         height="55.999996"
         x="28.14286"
         y="251.07648"
         rx="0"
         ry="0"
         inkscape:export-filename="/home/pinheiro/Documents/pics/estilo/plasma/rect2996.png"
         inkscape:export-xdpi="90"
         inkscape:export-ydpi="90" />
      <path
         style="font-size:medium;font-style:normal;font-variant:normal;font-weight:normal;font-stretch:normal;text-indent:0;text-align:start;text-decoration:none;line-height:normal;letter-spacing:normal;word-spacing:normal;text-transform:none;direction:ltr;block-progression:tb;writing-mode:lr-tb;text-anchor:start;baseline-shift:baseline;opacity:0.75;color:#000000;fill:#333333;fill-opacity:1;fill-rule:nonzero;stroke:none;stroke-width:1;marker:none;visibility:visible;display:inline;overflow:visible;enable-background:accumulate;font-family:Sans;-inkscape-font-specification:Sans"
         d="m 29.17411,305.29523 -0.03125,0.46875 0.34375,0.3125 0.125,0 4,0 0.40625,-0.21875 0.03125,-0.4375 -0.34375,-0.3125 -0.09375,-0.0312 -4,0 z m 8,0 -0.03125,0.46875 0.34375,0.3125 0.125,0 4,0 0.40625,-0.21875 0.03125,-0.4375 -0.34375,-0.3125 -0.09375,-0.0312 -4,0 z m 8,0 -0.03125,0.46875 0.34375,0.3125 0.125,0 4,0 0.40625,-0.21875 0.03125,-0.4375 -0.34375,-0.3125 -0.09375,-0.0312 -4,0 z m 8,0 -0.03125,0.46875 0.34375,0.3125 0.125,0 4,0 0.40625,-0.21875 0.03125,-0.4375 -0.34375,-0.3125 -0.09375,-0.0312 -4,0 z m 8,0 -0.03125,0.46875 0.34375,0.3125 0.125,0 4,0 0.40625,-0.21875 0.03125,-0.4375 -0.34375,-0.3125 -0.09375,-0.0312 -4,0 z m 8,0 -0.03125,0.46875 0.34375,0.3125 0.125,0 4,0 0.40625,-0.21875 0.03125,-0.4375 -0.34375,-0.3125 -0.09375,-0.0312 -4,0 z m 8,0 -0.03125,0.46875 0.34375,0.3125 0.125,0 4,0 0.40625,-0.21875 0.03125,-0.4375 -0.34375,-0.3125 -0.09375,-0.0312 -4,0 z m 8,0 -0.03125,0.46875 0.34375,0.3125 0.125,0 4,0 0.40625,-0.21875 0.03125,-0.4375 -0.34375,-0.3125 -0.09375,-0.0312 -4,0 z m 8,0 -0.03125,0.46875 0.34375,0.3125 0.125,0 4,0 0.40625,-0.21875 0.03125,-0.4375 -0.34375,-0.3125 -0.09375,-0.0312 -4,0 z m 8,0 -0.0312,0.46875 0.34375,0.3125 0.125,0 4,0 0.40625,-0.21875 0.0312,-0.4375 -0.34375,-0.3125 -0.0937,-0.0312 -4,0 z m 8,0 -0.0312,0.46875 0.34375,0.3125 0.125,0 4,0 0.40625,-0.21875 0.0312,-0.4375 -0.34375,-0.3125 -0.0937,-0.0312 -4,0 z m 8,0 -0.0312,0.46875 0.34375,0.3125 0.125,0 4,0 0.40625,-0.21875 0.0312,-0.4375 -0.34375,-0.3125 -0.0937,-0.0312 -4,0 z m 8,0 -0.0312,0.46875 0.34375,0.3125 0.125,0 4,0 0.40625,-0.21875 0.0312,-0.4375 -0.34375,-0.3125 -0.0937,-0.0312 -4,0 z m 8,0 -0.0312,0.46875 0.34375,0.3125 0.125,0 4,0 0.40625,-0.21875 0.0312,-0.4375 -0.34375,-0.3125 -0.0937,-0.0312 -4,0 z m 8,0 -0.0312,0.46875 0.34375,0.3125 0.125,0 4,0 0.40625,-0.21875 0.0312,-0.4375 -0.34375,-0.3125 -0.0937,-0.0312 -4,0 z m 8,0 -0.0312,0.46875 0.34375,0.3125 0.125,0 4,0 0.40625,-0.21875 0.0312,-0.4375 -0.34375,-0.3125 -0.0937,-0.0312 -4,0 z m 8,0 -0.0312,0.46875 0.34375,0.3125 0.125,0 4,0 0.40625,-0.21875 0.0312,-0.4375 -0.34375,-0.3125 -0.0937,-0.0312 -4,0 z m 8,0 -0.0312,0.46875 0.34375,0.3125 0.125,0 4,0 0.40625,-0.21875 0.0312,-0.4375 -0.34375,-0.3125 -0.0937,-0.0312 -4,0 z m 8,0 -0.0312,0.46875 0.34375,0.3125 0.125,0 4,0 0.40625,-0.21875 0.0312,-0.4375 -0.34375,-0.3125 -0.0937,-0.0312 -4,0 z m 8,0 -0.0312,0.46875 0.34375,0.3125 0.125,0 4,0 0.40625,-0.21875 0.0312,-0.4375 -0.34375,-0.3125 -0.0937,-0.0312 -4,0 z m 8,0 -0.0312,0.46875 0.34375,0.3125 0.125,0 4,0 0.40625,-0.21875 0.0312,-0.4375 -0.34375,-0.3125 -0.0937,-0.0312 -4,0 z m 8,0 -0.0312,0.46875 0.34375,0.3125 0.125,0 4,0 0.40625,-0.21875 0.0312,-0.4375 -0.34375,-0.3125 -0.0937,-0.0312 -4,0 z m 8,0 -0.0312,0.46875 0.34375,0.3125 0.125,0 4,0 0.40625,-0.21875 0.0312,-0.4375 -0.34375,-0.3125 -0.0937,-0.0312 -4,0 z m 8,0 -0.0312,0.46875 0.34375,0.3125 0.125,0 4,0 0.40625,-0.21875 0.0312,-0.4375 -0.34375,-0.3125 -0.0937,-0.0312 -4,0 z m 8,0 -0.0312,0.46875 0.34375,0.3125 0.125,0 4,0 0.40625,-0.21875 0.0312,-0.4375 -0.34375,-0.3125 -0.0937,-0.0312 -4,0 z m 8,0 -0.0312,0.46875 0.34375,0.3125 0.125,0 4,0 0.40625,-0.21875 0.0312,-0.4375 -0.34375,-0.3125 -0.0937,-0.0312 -4,0 z m 8,0 -0.0312,0.46875 0.34375,0.3125 0.125,0 4,0 0.40625,-0.21875 0.0312,-0.4375 -0.34375,-0.3125 -0.0937,-0.0312 -4,0 z m 8,0 -0.0312,0.46875 0.34375,0.3125 0.125,0 4,0 0.40625,-0.21875 0.0312,-0.4375 -0.34375,-0.3125 -0.0937,-0.0312 -4,0 z m 8,0 -0.0312,0.46875 0.34375,0.3125 0.125,0 4,0 0.40625,-0.21875 0.0312,-0.4375 -0.34375,-0.3125 -0.0937,-0.0312 -4,0 z m 8,0 -0.0312,0.46875 0.34375,0.3125 0.125,0 4,0 0.40625,-0.21875 0.0312,-0.4375 -0.34375,-0.3125 -0.0937,-0.0312 -4,0 z m 8,0 -0.0312,0.46875 0.34375,0.3125 0.125,0 4,0 0.40625,-0.21875 0.0312,-0.4375 -0.34375,-0.3125 -0.0937,-0.0312 -4,0 z m 8,0 -0.0312,0.46875 0.34375,0.3125 0.125,0 4,0 0.40625,-0.21875 0.0312,-0.4375 -0.34375,-0.3125 -0.0937,-0.0312 -4,0 z m 8,0 -0.0312,0.46875 0.34375,0.3125 0.125,0 4,0 0.40625,-0.21875 0.0312,-0.4375 -0.34375,-0.3125 -0.0937,-0.0312 -4,0 z m 8,0 -0.0312,0.46875 0.34375,0.3125 0.125,0 4,0 0.40625,-0.21875 0.0312,-0.4375 -0.34375,-0.3125 -0.0937,-0.0312 -4,0 z m 8,0 -0.0312,0.46875 0.34375,0.3125 0.125,0 4,0 0.40625,-0.21875 0.0312,-0.4375 -0.34375,-0.3125 -0.0937,-0.0312 -4,0 z"
         id="path2998"
         inkscape:connector-curvature="0" />
    </g>
  </g>
</svg>
